# xmcd CD database file
#
# Track frame offsets:
#	182
#	10542
#	35037
#	69167
#	98905
#	122427
#	142635
#	157672
#	191692
#	227912
#	256480
#	275212
#
# Disc length: 4056 seconds
#
# Revision: 2
# Processed by: cddbd v1.4PL0 Copyright (c) Steve Scherf et al.
# Submitted via: CDex 1.40Release
#
DISCID=960fd60c
DTITLE=Teddy Edwards - Brasstring Ensemble - Blue Saxophone
DYEAR=1992
DGENRE=Jazz
TTITLE0=Prelude
TTITLE1=Blue Saxophone
TTITLE2=Lennox Lady
TTITLE3=No Name Number One
TTITLE4=Ballad For Susan
TTITLE5=Brazilian Skies
TTITLE6=Hot Tamale Joe
TTITLE7=Them Dirty Old Blues
TTITLE8=Glass Of Water
TTITLE9=Serenade In Blue
TTITLE10=Hymn For The Homeless
TTITLE11=Going Home
EXTD=YEAR: 1992 ID3G: 8
EXTT0=
EXTT1=
EXTT2=
EXTT3=
EXTT4=
EXTT5=
EXTT6=
EXTT7=
EXTT8=
EXTT9=
EXTT10=
EXTT11=
PLAYORDER=
